<?xml version="1.0" encoding="UTF-8"?>
<svg width="340px" height="340px" viewBox="0 0 340 340" version="1.1" xmlns="http://www.w3.org/2000/svg" xmlns:xlink="http://www.w3.org/1999/xlink">
    <!-- Generator: Sketch 43.2 (39069) - http://www.bohemiancoding.com/sketch -->
    <title>Shape</title>
    <desc>Created with Sketch.</desc>
    <defs></defs>
    <g id="Page-1" stroke="none" stroke-width="1" fill="none" fill-rule="evenodd">
        <g id="close" fill-rule="nonzero" fill="#CD2026">
            <path d="M247.244,169.59 L331.182,85.652 C336.514,80.325 339.176,73.854 339.176,66.238 C339.176,58.624 336.506,52.154 331.182,46.824 L292.355,7.994 C287.025,2.664 280.555,0 272.945,0 C265.327,0 258.859,2.665 253.527,7.993 L169.59,91.93 L85.65,7.994 C80.326,2.665 73.855,0 66.238,0 C58.628,0 52.155,2.665 46.824,7.993 L7.994,46.823 C2.668,52.15 0,58.624 0,66.24 C0,73.856 2.664,80.324 7.994,85.654 L91.93,169.59 L7.995,253.528 C2.667,258.858 0,265.328 0,272.945 C0,280.555 2.664,287.027 7.994,292.355 L46.824,331.183 C52.154,336.515 58.627,339.177 66.238,339.177 C73.854,339.177 80.322,336.507 85.652,331.183 L169.592,247.245 L253.535,331.183 C258.863,336.515 265.328,339.177 272.952,339.177 C280.562,339.177 287.034,336.507 292.362,331.183 L331.182,292.355 C336.515,287.031 339.177,280.555 339.177,272.945 C339.177,265.327 336.515,258.859 331.183,253.528 L247.243,169.59 L247.244,169.59 Z" id="Shape"></path>
        </g>
    </g>
</svg>